<svg xmlns="http://www.w3.org/2000/svg">
  <symbol id="arrow-down" width="11" height="7" viewBox="0 0 11 7" fill="none"
    xmlns="http://www.w3.org/2000/svg">
    <path
      d="M10.5774 1.20298L5.88989 5.89048C5.82457 5.95603 5.74695 6.00804 5.66148 6.04353C5.57602 6.07901 5.48439 6.09728 5.39184 6.09728C5.2993 6.09728 5.20767 6.07901 5.12221 6.04353C5.03674 6.00804 4.95912 5.95603 4.8938 5.89048L0.206298 1.20298C0.0742076 1.07089 -1.9683e-09 0.891734 0 0.704931C1.9683e-09 0.518127 0.0742076 0.338974 0.206298 0.206884C0.338388 0.0747935 0.517541 0.000586065 0.704345 0.000586063C0.891149 0.000586061 1.0703 0.0747935 1.20239 0.206884L5.39243 4.39692L9.58247 0.206298C9.71456 0.0742078 9.89371 0 10.0805 0C10.2673 0 10.4465 0.0742078 10.5786 0.206298C10.7107 0.338388 10.7849 0.517541 10.7849 0.704345C10.7849 0.891149 10.7107 1.0703 10.5786 1.20239L10.5774 1.20298Z"
      fill="currentColor" />
  </symbol>

  <symbol id="icon-search" width="24" height="24" viewBox="0 0 24 24" fill="none"
    xmlns="http://www.w3.org/2000/svg">
    <path
      d="M21.7959 20.2041L17.3437 15.75C18.6787 14.0104 19.3019 11.8282 19.087 9.64606C18.8722 7.46389 17.8353 5.44515 16.1867 3.99936C14.5382 2.55356 12.4014 1.78898 10.2098 1.8607C8.01829 1.93243 5.93607 2.83509 4.38558 4.38558C2.83509 5.93607 1.93243 8.01829 1.8607 10.2098C1.78898 12.4014 2.55356 14.5382 3.99936 16.1867C5.44515 17.8353 7.46389 18.8722 9.64606 19.087C11.8282 19.3019 14.0104 18.6787 15.75 17.3437L20.2059 21.8006C20.3106 21.9053 20.4348 21.9883 20.5715 22.0449C20.7083 22.1015 20.8548 22.1307 21.0028 22.1307C21.1508 22.1307 21.2973 22.1015 21.4341 22.0449C21.5708 21.9883 21.695 21.9053 21.7997 21.8006C21.9043 21.696 21.9873 21.5717 22.044 21.435C22.1006 21.2983 22.1298 21.1517 22.1298 21.0037C22.1298 20.8557 22.1006 20.7092 22.044 20.5725C21.9873 20.4357 21.9043 20.3115 21.7997 20.2069L21.7959 20.2041ZM4.12499 10.5C4.12499 9.23914 4.49888 8.0066 5.19938 6.95823C5.89987 5.90987 6.89551 5.09277 8.06039 4.61026C9.22527 4.12775 10.5071 4.00151 11.7437 4.24749C12.9803 4.49347 14.1162 5.10063 15.0078 5.99219C15.8994 6.88375 16.5065 8.01966 16.7525 9.25629C16.9985 10.4929 16.8722 11.7747 16.3897 12.9396C15.9072 14.1045 15.0901 15.1001 14.0418 15.8006C12.9934 16.5011 11.7608 16.875 10.5 16.875C8.80977 16.8733 7.18927 16.201 5.99411 15.0059C4.79894 13.8107 4.12673 12.1902 4.12499 10.5Z"
      fill="currentColor" />
  </symbol>

  <symbol id="icon-home" width="20" height="20" viewBox="0 0 20 20" fill="none"
    xmlns="http://www.w3.org/2000/svg">
    <path
      d="M7.33333 18V11.9136C7.33333 11.3534 7.8109 10.8992 8.4 10.8992H11.6C12.1891 10.8992 12.6667 11.3534 12.6667 11.9136V18M9.38184 2.18771L2.44851 6.87647C2.16713 7.06676 2 7.3748 2 7.70316V16.4784C2 17.3188 2.71634 18 3.6 18H16.4C17.2837 18 18 17.3188 18 16.4784V7.70316C18 7.3748 17.8329 7.06676 17.5515 6.87647L10.6182 2.18771C10.2481 1.93743 9.75193 1.93743 9.38184 2.18771Z"
      stroke="#34AE6B" stroke-width="1.5" stroke-linecap="round" />
  </symbol>

  <symbol id="breadcrumbs-divider" width="24" height="24" viewBox="0 0 24 24" fill="none"
    xmlns="http://www.w3.org/2000/svg">
    <path d="M6.90883 20.8182L17.0912 3.18185" stroke="#666666" stroke-width="1.5"
      stroke-linecap="round" />
  </symbol>

  <symbol id="arrow-right" width="25" height="15" viewBox="0 0 25 15" fill="none"
    xmlns="http://www.w3.org/2000/svg">
    <path
      d="M24.7071 8.07112C25.0976 7.6806 25.0976 7.04743 24.7071 6.65691L18.3431 0.292946C17.9526 -0.0975785 17.3195 -0.0975785 16.9289 0.292946C16.5384 0.68347 16.5384 1.31664 16.9289 1.70716L22.5858 7.36401L16.9289 13.0209C16.5384 13.4114 16.5384 14.0446 16.9289 14.4351C17.3195 14.8256 17.9526 14.8256 18.3431 14.4351L24.7071 8.07112ZM0 7.36401V8.36401H24V7.36401V6.36401H0V7.36401Z"
      fill="currentColor" />
  </symbol>

  <symbol id="slider-arrow" width="9" height="15" viewBox="0 0 9 15" fill="none"
    xmlns="http://www.w3.org/2000/svg">
    <path
      d="M6.52574 0.276694L0.275737 6.52669C0.188337 6.61379 0.118991 6.71728 0.0716735 6.83124C0.0243559 6.94519 -2.30296e-06 7.06737 -2.30836e-06 7.19076C-2.31375e-06 7.31414 0.0243559 7.43632 0.0716735 7.55027C0.118991 7.66423 0.188337 7.76772 0.275737 7.85482L6.52574 14.1048C6.70186 14.2809 6.94073 14.3799 7.1898 14.3799C7.43887 14.3799 7.67774 14.2809 7.85386 14.1048C8.02998 13.9287 8.12893 13.6898 8.12893 13.4408C8.12893 13.1917 8.02998 12.9528 7.85386 12.7767L2.26714 7.18998L7.85464 1.60326C8.03076 1.42714 8.12971 1.18827 8.12971 0.939195C8.12971 0.690123 8.03076 0.451253 7.85464 0.275133C7.67852 0.0990123 7.43965 6.6727e-05 7.19058 6.67162e-05C6.94151 6.67053e-05 6.70264 0.0990123 6.52652 0.275133L6.52574 0.276694Z"
      fill="currentColor" />
  </symbol>

  <symbol id="icon-plus" viewBox="0 0 16 16" fill="none"
    xmlns="http://www.w3.org/2000/svg">
    <path d="M8 1V15M1 8H15" stroke="#34AE6B" stroke-width="2" stroke-linecap="round"
      stroke-linejoin="round" />
  </symbol>

  <symbol id="icon-minus" viewBox="0 0 14 2" fill="none" xmlns="http://www.w3.org/2000/svg">
    <path d="M0.75 0.75H12.75" stroke="currentColor" stroke-width="1.5" stroke-linecap="round"
      stroke-linejoin="round" />
  </symbol>

  <symbol id="burger" fill="none"
    xmlns="http://www.w3.org/2000/svg">
    <path
      d="M18.75 7.125C18.75 7.42337 18.6315 7.70952 18.4205 7.92049C18.2095 8.13147 17.9234 8.25 17.625 8.25H1.125C0.826631 8.25 0.540483 8.13147 0.329505 7.92049C0.118526 7.70952 0 7.42337 0 7.125C0 6.82663 0.118526 6.54048 0.329505 6.3295C0.540483 6.11853 0.826631 6 1.125 6H17.625C17.9234 6 18.2095 6.11853 18.4205 6.3295C18.6315 6.54048 18.75 6.82663 18.75 7.125ZM1.125 2.25H17.625C17.9234 2.25 18.2095 2.13147 18.4205 1.9205C18.6315 1.70952 18.75 1.42337 18.75 1.125C18.75 0.826631 18.6315 0.540483 18.4205 0.329505C18.2095 0.118526 17.9234 0 17.625 0H1.125C0.826631 0 0.540483 0.118526 0.329505 0.329505C0.118526 0.540483 0 0.826631 0 1.125C0 1.42337 0.118526 1.70952 0.329505 1.9205C0.540483 2.13147 0.826631 2.25 1.125 2.25ZM17.625 12H1.125C0.826631 12 0.540483 12.1185 0.329505 12.3295C0.118526 12.5405 0 12.8266 0 13.125C0 13.4234 0.118526 13.7095 0.329505 13.9205C0.540483 14.1315 0.826631 14.25 1.125 14.25H17.625C17.9234 14.25 18.2095 14.1315 18.4205 13.9205C18.6315 13.7095 18.75 13.4234 18.75 13.125C18.75 12.8266 18.6315 12.5405 18.4205 12.3295C18.2095 12.1185 17.9234 12 17.625 12Z"
      fill="currentColor" />
  </symbol>

</svg>